<?xml version="1.0" encoding="utf-8"?>
<!-- Generator: Adobe Illustrator 17.1.0, SVG Export Plug-In . SVG Version: 6.00 Build 0)  -->
<!DOCTYPE svg PUBLIC "-//W3C//DTD SVG 1.1//EN" "http://www.w3.org/Graphics/SVG/1.1/DTD/svg11.dtd">
<svg version="1.1" id="Layer_1" xmlns="http://www.w3.org/2000/svg" xmlns:xlink="http://www.w3.org/1999/xlink" x="0px" y="0px"
	 viewBox="0 0 500 262.7" enable-background="new 0 0 500 262.7" xml:space="preserve">
<g>
	<path fill="#333741" d="M52.7,33.8c0,6.5,5.3,11.7,11.7,11.7h39.7c6.5,0,11.8-5.3,11.8-11.7v-7.1c0-6.5-5.3-11.7-11.8-11.7H64.5
		c-6.5,0-11.7,5.3-11.7,11.7V33.8z"/>
	<g>
		<path fill="#FFFFFF" d="M71,35v-3.9h-4.8V35h-1.8v-9.7h1.8v4.1H71v-4.1h1.8V35H71z"/>
		<path fill="#FFFFFF" d="M78.1,26.9h-3.1v-1.7c2.8,0,5.2,0,8,0v1.7H80v8h-1.8V26.9z"/>
		<path fill="#FFFFFF" d="M93.7,27.9l-3.2,4.2h-0.4L87,27.9V35h-1.8v-9.7h2.1l3,4.2l3-4.2h2.1V35h-1.8V27.9z"/>
		<path fill="#FFFFFF" d="M100.1,25.3v8h5V35h-6.8v-9.7H100.1z"/>
	</g>
</g>
<g>
	<path fill="#3A3F4A" d="M62.9,143c0,6.5,5.3,11.8,11.8,11.8h39.7c6.5,0,11.7-5.3,11.7-11.8v-7.1c0-6.5-5.3-11.7-11.7-11.7H74.7
		c-6.5,0-11.8,5.3-11.8,11.7V143z"/>
	<g>
		<path fill="#F5876E" d="M86.3,143.5c-1.2,1.2-2.7,1.7-4.3,1.7c-4.2,0-6-2.9-6-5.9c0-3,1.9-6,6-6c1.5,0,3,0.6,4.2,1.7l-1.4,1.4
			c-0.7-0.7-1.8-1.1-2.7-1.1c-2.7,0-3.9,2-3.9,3.9c0,1.9,1.1,3.8,3.9,3.8c1,0,2.1-0.4,2.9-1.2L86.3,143.5z"/>
		<path fill="#F5876E" d="M95.9,136.3c-0.4-0.7-1.5-1.3-2.7-1.3c-1.6,0-2.4,0.7-2.4,1.5c0,1,1.2,1.3,2.5,1.4
			c2.4,0.3,4.6,0.9,4.6,3.6c0,2.5-2.2,3.6-4.8,3.6c-2.3,0-4.1-0.7-5-2.8l1.8-0.9c0.5,1.3,1.8,1.8,3.2,1.8c1.3,0,2.6-0.5,2.6-1.7
			c0-1.1-1.1-1.5-2.6-1.7c-2.3-0.3-4.5-0.9-4.5-3.4c0-2.3,2.3-3.3,4.4-3.3c1.8,0,3.6,0.5,4.5,2.3L95.9,136.3z"/>
		<path fill="#F5876E" d="M107.9,136.3c-0.4-0.7-1.5-1.3-2.7-1.3c-1.6,0-2.4,0.7-2.4,1.5c0,1,1.2,1.3,2.5,1.4
			c2.4,0.3,4.6,0.9,4.6,3.6c0,2.5-2.2,3.6-4.8,3.6c-2.3,0-4.1-0.7-5-2.8l1.8-0.9c0.5,1.3,1.8,1.8,3.2,1.8c1.3,0,2.6-0.5,2.6-1.7
			c0-1.1-1.1-1.5-2.6-1.7c-2.3-0.3-4.5-0.9-4.5-3.4c0-2.3,2.3-3.3,4.4-3.3c1.8,0,3.6,0.5,4.5,2.3L107.9,136.3z"/>
	</g>
</g>
<g>
	<g>
		<g>
			<g>
				<g>
					<path fill="#282D36" d="M352.9,194.5V73.6c0-8.1-6.6-14.7-14.7-14.7H130.3c-8.1,0-14.7,6.6-14.7,14.7v120.8
						c0,0.2,0,25.7,0,25.9h237.3C352.9,220.2,352.9,194.6,352.9,194.5z"/>
				</g>
				<rect x="132.5" y="75.3" fill="#3F4450" width="202.5" height="130.6"/>
				<g>
					<path fill="#FFFFFF" d="M95.5,223.5c0,9.5,7.7,17.2,17.2,17.2h243.2c9.5,0,17.2-7.7,17.2-17.2v-3.2H95.5V223.5z"/>
				</g>
				<path fill="#C5C6C8" d="M251.7,231.2c0,1-1,1.8-2.2,1.8h-31.6c-1.2,0-2.2-0.8-2.2-1.8l0,0c0-1,1-1.8,2.2-1.8h31.6
					C250.8,229.4,251.7,230.2,251.7,231.2L251.7,231.2z"/>
			</g>
		</g>
	</g>
	<g>
		<path fill="#3A3F4A" d="M335,75.6v-0.3H132.5v113.5C161.2,132.4,238.4,88.8,335,75.6z"/>
	</g>
</g>
<g>
	<g>
		<g>
			<path fill="#2B2F37" d="M451.6,1.7c0,0-13.4,1.1-13.4,9.3h25.9C464.1,11.1,464.7,1.7,451.6,1.7z"/>
			<path fill="#333741" d="M451.6,1.7c0,0-129.8,0-144.9,0c-15.1,0-14.4,9.3-14.4,9.3h145.9C438.3,2.8,451.6,1.7,451.6,1.7z"/>
		</g>
		<rect x="292" y="11.1" fill="#333741" width="145.9" height="208.9"/>
		<g>
			<path fill="#2B2F37" d="M278.6,229.3c0,0,13.4-1.1,13.4-9.3h-25.9C266.2,219.9,265.5,229.3,278.6,229.3z"/>
			<path fill="#333741" d="M278.6,229.3c0,0,129.8,0,144.9,0c15.1,0,14.4-9.3,14.4-9.3H292C292,228.2,278.6,229.3,278.6,229.3z"/>
		</g>
	</g>
	<g>
		<g>
			<path fill="#F5876E" d="M389.8,191h-13.5c-0.7,0-1.3-0.5-1.3-1.1c0-0.6,0.6-1.1,1.3-1.1h13.5c0.7,0,1.3,0.5,1.3,1.1
				C391.1,190.5,390.5,191,389.8,191z"/>
		</g>
		<g>
			<path fill="#2C3039" d="M412.5,191h-15.2c-0.7,0-1.3-0.5-1.3-1.1c0-0.6,0.6-1.1,1.3-1.1h15.2c0.7,0,1.3,0.5,1.3,1.1
				C413.8,190.5,413.2,191,412.5,191z"/>
		</g>
		<g>
			<path fill="#2C3039" d="M428.1,200h-51.8c-0.7,0-1.3-0.5-1.3-1.1c0-0.6,0.6-1.1,1.3-1.1h51.8c0.7,0,1.3,0.5,1.3,1.1
				C429.4,199.5,428.8,200,428.1,200z"/>
		</g>
		<g>
			<path fill="#03B4AC" d="M402.2,209.6h-25.9c-0.7,0-1.3-0.5-1.3-1.1c0-0.6,0.6-1.1,1.3-1.1h25.9c0.7,0,1.3,0.5,1.3,1.1
				C403.5,209.2,402.9,209.6,402.2,209.6z"/>
		</g>
		<g>
			<path fill="#F5876E" d="M417.8,209.6H410c-0.7,0-1.3-0.5-1.3-1.1c0-0.6,0.6-1.1,1.3-1.1h7.8c0.7,0,1.3,0.5,1.3,1.1
				C419.1,209.2,418.5,209.6,417.8,209.6z"/>
		</g>
		<g>
			<path fill="#2C3039" d="M346.1,208.2h13.5c0.7,0,1.3,0.5,1.3,1.1c0,0.6-0.6,1.1-1.3,1.1h-13.5c-0.7,0-1.3-0.5-1.3-1.1
				C344.8,208.7,345.3,208.2,346.1,208.2z"/>
		</g>
		<g>
			<path fill="#F5876E" d="M323.4,208.2h15.3c0.7,0,1.3,0.5,1.3,1.1c0,0.6-0.6,1.1-1.3,1.1h-15.3c-0.7,0-1.3-0.5-1.3-1.1
				C322.1,208.7,322.6,208.2,323.4,208.2z"/>
		</g>
		<g>
			<path fill="#03B4AC" d="M307.8,199.2h51.8c0.7,0,1.3,0.5,1.3,1.1c0,0.6-0.6,1.1-1.3,1.1h-51.8c-0.7,0-1.3-0.5-1.3-1.1
				C306.5,199.7,307,199.2,307.8,199.2z"/>
		</g>
		<g>
			<path fill="#2C3039" d="M333.7,189.6h25.9c0.7,0,1.3,0.5,1.3,1.1c0,0.6-0.6,1.1-1.3,1.1h-25.9c-0.7,0-1.3-0.5-1.3-1.1
				C332.4,190.1,332.9,189.6,333.7,189.6z"/>
		</g>
		<g>
			<path fill="#2C3039" d="M318,189.6h7.8c0.7,0,1.3,0.5,1.3,1.1c0,0.6-0.6,1.1-1.3,1.1H318c-0.7,0-1.3-0.5-1.3-1.1
				C316.7,190.1,317.3,189.6,318,189.6z"/>
		</g>
		<g>
			<path fill="#F5876E" d="M355.4,132.5h-42.8c-0.7,0-1.3-0.5-1.3-1.1c0-0.6,0.6-1.1,1.3-1.1h42.8c0.7,0,1.3,0.5,1.3,1.1
				C356.7,132,356.1,132.5,355.4,132.5z"/>
		</g>
		<g>
			<path fill="#2C3039" d="M418.5,132.5h-56.2c-0.7,0-1.3-0.5-1.3-1.1c0-0.6,0.6-1.1,1.3-1.1h56.2c0.7,0,1.3,0.5,1.3,1.1
				C419.8,132,419.3,132.5,418.5,132.5z"/>
		</g>
		<g>
			<path fill="#2C3039" d="M383.1,145.4h-81.2c-0.7,0-1.3-0.5-1.3-1.1c0-0.6,0.6-1.1,1.3-1.1h81.2c0.7,0,1.3,0.5,1.3,1.1
				C384.4,144.9,383.8,145.4,383.1,145.4z"/>
		</g>
		<g>
			<path fill="#03B4AC" d="M428.1,145.4h-37.7c-0.7,0-1.3-0.5-1.3-1.1c0-0.6,0.6-1.1,1.3-1.1h37.7c0.7,0,1.3,0.5,1.3,1.1
				C429.4,144.9,428.8,145.4,428.1,145.4z"/>
		</g>
		<g>
			<path fill="#2C3039" d="M332.4,159.8h-30.5c-0.7,0-1.3-0.5-1.3-1.1c0-0.6,0.6-1.1,1.3-1.1h30.5c0.7,0,1.3,0.5,1.3,1.1
				C333.7,159.3,333.1,159.8,332.4,159.8z"/>
		</g>
		<g>
			<path fill="#F5876E" d="M398.3,159.8h-57.4c-0.7,0-1.3-0.5-1.3-1.1c0-0.6,0.6-1.1,1.3-1.1h57.4c0.7,0,1.3,0.5,1.3,1.1
				C399.6,159.3,399,159.8,398.3,159.8z"/>
		</g>
		<g>
			<path fill="#2C3039" d="M416.4,159.8h-11c-0.7,0-1.3-0.5-1.3-1.1c0-0.6,0.6-1.1,1.3-1.1h11c0.7,0,1.3,0.5,1.3,1.1
				C417.7,159.3,417.1,159.8,416.4,159.8z"/>
		</g>
		<g>
			<path fill="#F5876E" d="M355.4,26h-42.8c-0.7,0-1.3-0.5-1.3-1.1c0-0.6,0.6-1.1,1.3-1.1h42.8c0.7,0,1.3,0.5,1.3,1.1
				C356.7,25.5,356.1,26,355.4,26z"/>
		</g>
		<g>
			<path fill="#2C3039" d="M418.5,26h-56.2c-0.7,0-1.3-0.5-1.3-1.1c0-0.6,0.6-1.1,1.3-1.1h56.2c0.7,0,1.3,0.5,1.3,1.1
				C419.8,25.5,419.3,26,418.5,26z"/>
		</g>
		<g>
			<path fill="#2C3039" d="M383.1,38.9h-81.2c-0.7,0-1.3-0.5-1.3-1.1c0-0.6,0.6-1.1,1.3-1.1h81.2c0.7,0,1.3,0.5,1.3,1.1
				C384.4,38.4,383.8,38.9,383.1,38.9z"/>
		</g>
		<g>
			<path fill="#03B4AC" d="M428.1,38.9h-37.7c-0.7,0-1.3-0.5-1.3-1.1c0-0.6,0.6-1.1,1.3-1.1h37.7c0.7,0,1.3,0.5,1.3,1.1
				C429.4,38.4,428.8,38.9,428.1,38.9z"/>
		</g>
		<g>
			<path fill="#2C3039" d="M332.4,53.3h-30.5c-0.7,0-1.3-0.5-1.3-1.1c0-0.6,0.6-1.1,1.3-1.1h30.5c0.7,0,1.3,0.5,1.3,1.1
				C333.7,52.8,333.1,53.3,332.4,53.3z"/>
		</g>
		<g>
			<path fill="#F5876E" d="M398.3,53.3h-57.5c-0.7,0-1.3-0.5-1.3-1.1c0-0.6,0.6-1.1,1.3-1.1h57.5c0.7,0,1.3,0.5,1.3,1.1
				C399.6,52.8,399,53.3,398.3,53.3z"/>
		</g>
		<g>
			<path fill="#2C3039" d="M416.4,53.3h-11c-0.7,0-1.3-0.5-1.3-1.1c0-0.6,0.6-1.1,1.3-1.1h11c0.7,0,1.3,0.5,1.3,1.1
				C417.7,52.8,417.1,53.3,416.4,53.3z"/>
		</g>
		<g>
			<path fill="#03B4AC" d="M308.6,174.2h-6.8c-0.7,0-1.3-0.5-1.3-1.1s0.6-1.1,1.3-1.1h6.8c0.7,0,1.3,0.5,1.3,1.1
				S309.3,174.2,308.6,174.2z"/>
		</g>
		<g>
			<path fill="#2C3039" d="M384.5,174.2h-67.4c-0.7,0-1.3-0.5-1.3-1.1s0.6-1.1,1.3-1.1h67.4c0.7,0,1.3,0.5,1.3,1.1
				S385.2,174.2,384.5,174.2z"/>
		</g>
		<g>
			<path fill="#F5876E" d="M428.1,174.2h-35.5c-0.7,0-1.3-0.5-1.3-1.1s0.6-1.1,1.3-1.1h35.5c0.7,0,1.3,0.5,1.3,1.1
				S428.8,174.2,428.1,174.2z"/>
		</g>
		<g>
			<path fill="#2C3039" d="M399.5,113.8h17.8c0.7,0,1.3,0.5,1.3,1.1c0,0.6-0.6,1.1-1.3,1.1h-17.8c-0.7,0-1.3-0.5-1.3-1.1
				C398.2,114.3,398.8,113.8,399.5,113.8z"/>
		</g>
		<g>
			<path fill="#03B4AC" d="M311.4,113.8h80.5c0.7,0,1.3,0.5,1.3,1.1c0,0.6-0.6,1.1-1.3,1.1h-80.5c-0.7,0-1.3-0.5-1.3-1.1
				C310.1,114.3,310.7,113.8,311.4,113.8z"/>
		</g>
		<g>
			<path fill="#F5876E" d="M316.2,87.2h-13c-0.7,0-1.3-0.5-1.3-1.1c0-0.6,0.6-1.1,1.3-1.1h13c0.7,0,1.3,0.5,1.3,1.1
				C317.5,86.7,316.9,87.2,316.2,87.2z"/>
		</g>
		<g>
			<path fill="#2C3039" d="M374.9,87.2h-52c-0.7,0-1.3-0.5-1.3-1.1c0-0.6,0.6-1.1,1.3-1.1h52c0.7,0,1.3,0.5,1.3,1.1
				C376.2,86.7,375.6,87.2,374.9,87.2z"/>
		</g>
		<g>
			<path fill="#03B4AC" d="M428.1,87.2h-43.6c-0.7,0-1.3-0.5-1.3-1.1c0-0.6,0.6-1.1,1.3-1.1h43.6c0.7,0,1.3,0.5,1.3,1.1
				C429.4,86.7,428.8,87.2,428.1,87.2z"/>
		</g>
		<g>
			<path fill="#2C3039" d="M404,102.5H303.3c-0.7,0-1.3-0.5-1.3-1.1c0-0.6,0.6-1.1,1.3-1.1H404c0.7,0,1.3,0.5,1.3,1.1
				C405.3,102,404.7,102.5,404,102.5z"/>
		</g>
		<g>
			<path fill="#F5876E" d="M428.1,102.5h-16.3c-0.7,0-1.3-0.5-1.3-1.1c0-0.6,0.6-1.1,1.3-1.1h16.3c0.7,0,1.3,0.5,1.3,1.1
				C429.4,102,428.8,102.5,428.1,102.5z"/>
		</g>
		<g>
			<path fill="#F5876E" d="M405.4,69.1h22.7c0.7,0,1.3,0.5,1.3,1.1c0,0.6-0.6,1.1-1.3,1.1h-22.7c-0.7,0-1.3-0.5-1.3-1.1
				C404.1,69.6,404.7,69.1,405.4,69.1z"/>
		</g>
		<g>
			<path fill="#03B4AC" d="M303.3,69.1h94.3c0.7,0,1.3,0.5,1.3,1.1c0,0.6-0.6,1.1-1.3,1.1h-94.3c-0.7,0-1.3-0.5-1.3-1.1
				C302,69.6,302.5,69.1,303.3,69.1z"/>
		</g>
	</g>
</g>
<g>
	<rect x="454.8" y="37.9" fill="#FFFFFF" width="26.6" height="172.4"/>
	<g>
		<g>
			<rect x="454.8" y="201.5" fill="#C5C6C8" width="13.9" height="2.6"/>
		</g>
		<g>
			<rect x="454.8" y="171" fill="#C5C6C8" width="13.9" height="2.6"/>
		</g>
		<g>
			<rect x="454.8" y="155.4" fill="#C5C6C8" width="13.9" height="2.6"/>
		</g>
		<g>
			<rect x="454.8" y="139.5" fill="#C5C6C8" width="13.9" height="2.6"/>
		</g>
		<g>
			<rect x="454.8" y="124.1" fill="#C5C6C8" width="14.7" height="2.6"/>
		</g>
		<g>
			<rect x="454.8" y="109.5" fill="#C5C6C8" width="14.7" height="2.6"/>
		</g>
		<g>
			<rect x="454.8" y="93.4" fill="#C5C6C8" width="14.7" height="2.6"/>
		</g>
		<g>
			<rect x="454.8" y="186.2" fill="#C5C6C8" width="13.9" height="2.6"/>
		</g>
		<g>
			<rect x="454.8" y="193.7" fill="#C5C6C8" width="6.9" height="2.6"/>
		</g>
		<g>
			<rect x="454.8" y="178.5" fill="#C5C6C8" width="6.9" height="2.6"/>
		</g>
		<g>
			<rect x="454.8" y="163.5" fill="#C5C6C8" width="6.9" height="2.6"/>
		</g>
		<g>
			<rect x="454.8" y="147.7" fill="#C5C6C8" width="6.9" height="2.6"/>
		</g>
		<g>
			<rect x="454.8" y="132.4" fill="#C5C6C8" width="6.9" height="2.6"/>
		</g>
		<g>
			<rect x="454.8" y="117" fill="#C5C6C8" width="6.9" height="2.6"/>
		</g>
		<g>
			<rect x="454.8" y="101.1" fill="#C5C6C8" width="6.9" height="2.6"/>
		</g>
	</g>
	<g>
		<g>
			<rect x="454.8" y="82.4" fill="#C5C6C8" width="13.9" height="2.6"/>
		</g>
		<g>
			<rect x="454.8" y="51.9" fill="#C5C6C8" width="13.9" height="2.6"/>
		</g>
		<g>
			<rect x="454.8" y="67.2" fill="#C5C6C8" width="13.9" height="2.6"/>
		</g>
		<g>
			<rect x="454.8" y="74.6" fill="#C5C6C8" width="6.9" height="2.6"/>
		</g>
		<g>
			<rect x="454.8" y="59.4" fill="#C5C6C8" width="6.9" height="2.6"/>
		</g>
		<g>
			<rect x="454.8" y="44.4" fill="#C5C6C8" width="6.9" height="2.6"/>
		</g>
	</g>
	<rect x="478.9" y="37.9" fill="#C5C6C8" width="2.5" height="172.4"/>
</g>
<g>
	<g>
		<g>
			<rect x="489.5" y="76" fill="#2E323C" width="3" height="119.5"/>
			<rect x="492.5" y="76" fill="#30353F" width="3.1" height="119.5"/>
			<rect x="495.6" y="76" fill="#333741" width="3" height="119.5"/>
		</g>
		<g>
			<path fill="#2E323C" d="M495.8,62.6L494,54l-1.8,8.6C493.4,63.2,494.6,63.2,495.8,62.6z"/>
			<path fill="#FFFFFF" d="M492.2,62.6L489.5,76h9.1l-2.8-13.4C494.6,63.2,493.4,63.2,492.2,62.6z"/>
		</g>
		<rect x="489.5" y="195.5" fill="#FFFFFF" width="9.1" height="3.3"/>
		<rect x="489.5" y="198.8" fill="#333741" width="9.1" height="12.2"/>
	</g>
	<rect x="489.5" y="198.8" fill="#2E323C" width="2.8" height="12.2"/>
	<rect x="489.5" y="195.5" fill="#F2F2F2" width="2.8" height="3.3"/>
</g>
<g>
	<g>
		<g>
			<path fill="#2C3039" d="M463.8,241.4l-2.8-6c4.2-2,15.2-8.9,15.2-16.7c0-2.6-0.9-3.4-1.2-3.6c-2.1-1.7-7.3-0.7-9.2-0.3
				c-0.9,0.2-1.4,0.3-2,0.3v-6.6c-0.1,0-0.1,0-0.2,0c0.2,0,0.5-0.1,0.9-0.2c3.3-0.7,10.2-2,14.8,1.7c2.4,2,3.6,4.9,3.6,8.8
				C482.8,232.4,464.6,241.1,463.8,241.4z"/>
		</g>
		<g>
			<g>
				<g>
					<path fill="#333741" d="M415.5,202.1c-0.1,0.5-0.2,1-0.2,1.5v43.1c0,3.8,3.1,6.9,6.9,6.9H459c3.8,0,6.9-3.1,6.9-6.9v-43.1
						c0-0.5-0.1-1-0.2-1.5H415.5z"/>
				</g>
				<g>
					<path fill="#2F333D" d="M415.5,202.1c-0.1,0.5-0.2,1-0.2,1.5v43.1c0,3.8,3.1,6.9,6.9,6.9h1.7v-51.5H415.5z"/>
				</g>
			</g>
			<path fill="#282D36" d="M469.4,201.3c0,1.9-1.5,3.5-3.4,3.5h-50.6c-1.9,0-3.4-1.5-3.4-3.5l0,0c0-1.9,1.5-3.4,3.4-3.4h50.6
				C467.8,197.8,469.4,199.4,469.4,201.3L469.4,201.3z"/>
			<rect x="415.4" y="204.7" fill="#282D36" width="50.6" height="2.7"/>
		</g>
	</g>
	<path opacity="0.1" fill="#FFFFFF" d="M488.6,130.1h-64.6c-3,0-5.5,3.2-5.5,7.2c0,1.1,0.2,2.1,0.5,3h-10c-3.3,0-6,3.5-6,7.8
		c0,4.3,2.7,7.8,6,7.8h29.9c0,0.1,0,0.2,0,0.3c0,1.5,0.4,2.9,1.1,3.9h-11.3c-2.6,0-4.7,2.8-4.7,6.2c0,3.4,2.1,6.2,4.7,6.2h6.1
		c-0.3,0.6-0.4,1.3-0.4,2.1c0,1.1,0.3,2.1,0.8,2.8h-5.4c-2,0-3.6,2.1-3.6,4.7c0,1.9,0.9,3.6,2.1,4.3c-0.5,0.8-0.9,2-0.9,3.4
		c0,2.3,1,4.1,2.1,4.1h7.2c1.2,0,2.1-1.9,2.1-4.1c0-1.2-0.2-2.2-0.6-2.9h9.7c2,0,3.6-2.1,3.6-4.7c0-1.2-0.4-2.4-1-3.2
		c1.8-0.1,3.2-2,3.2-4.3c0-0.8-0.2-1.5-0.4-2.1h6.1c2.6,0,4.7-2.8,4.7-6.2c0-1.6-0.4-3-1.2-4.1h7c2.5,0,4.6-2.7,4.6-6.1
		c0-3.3-2.1-6.1-4.6-6.1h-8.5c0.1-0.7,0.2-1.3,0.2-2.1c0-1.3-0.3-2.6-0.7-3.7h27.6c3,0,5.5-3.2,5.5-7.2
		C494,133.3,491.6,130.1,488.6,130.1z"/>
</g>
<g>
	<g>
		<rect x="1.1" y="200.3" fill="#333741" width="179.8" height="58.7"/>
		<g>
			<path fill="#2C313A" d="M180.8,197.4c0-1.7-1.4-3.1-3.1-3.1H4.2c-1.7,0-3.1,1.4-3.1,3.1v2.9h179.8V197.4z"/>
		</g>
		<rect x="1.1" y="259" fill="#282D36" width="179.8" height="2.8"/>
		<g>
			<polygon fill="#2C313A" points="24.4,225.3 24.4,225.3 22.5,225.3 22.5,233.1 24.4,233.1 33.9,233.1 35.8,233.1 35.8,225.3 
				33.9,225.3 33.9,225.3 			"/>
			<polygon fill="#2C313A" points="20.5,212.4 22.5,212.4 22.5,210.4 22.5,208.5 22.5,206.6 20.5,206.6 9.5,206.6 7.5,206.6 
				7.5,208.5 7.5,210.4 7.5,212.4 9.5,212.4 			"/>
			<polygon fill="#2C313A" points="38.4,212.4 40.4,212.4 40.4,210.4 40.4,208.5 40.4,206.6 38.4,206.6 27.5,206.6 25.5,206.6 
				25.5,208.5 25.5,210.4 25.5,212.4 27.5,212.4 			"/>
			<polygon fill="#2C313A" points="56.9,212.4 58.9,212.4 58.9,210.4 58.9,208.5 58.9,205.8 44,205.8 44,208.5 44,210.4 44,212.4 
				46,212.4 			"/>
			<polygon fill="#2C313A" points="74.9,212.4 76.9,212.4 76.9,210.4 76.9,208.5 76.9,205.8 61.9,205.8 61.9,208.5 61.9,210.4 
				61.9,212.4 63.9,212.4 			"/>
			<polygon fill="#2C313A" points="93.4,212.4 95.3,212.4 95.3,210.4 95.3,208.5 95.3,205.8 80.4,205.8 80.4,208.5 80.4,210.4 
				80.4,212.4 82.4,212.4 			"/>
			<polygon fill="#2C313A" points="111.3,212.4 113.3,212.4 113.3,210.4 113.3,208.5 113.3,205.8 98.4,205.8 98.4,208.5 98.4,210.4 
				98.4,212.4 100.4,212.4 			"/>
			<polygon fill="#2C313A" points="129.8,212.4 131.8,212.4 131.8,210.4 131.8,208.5 131.8,205.8 116.9,205.8 116.9,208.5 
				116.9,210.4 116.9,212.4 118.9,212.4 			"/>
			<polygon fill="#2C313A" points="147.8,212.4 149.7,212.4 149.7,205.8 134.8,205.8 134.8,212.4 136.8,212.4 			"/>
			<polygon fill="#2C313A" points="160.5,212.4 162.4,212.4 162.4,210.4 162.4,208.5 162.4,205.8 153.2,205.8 153.2,208.5 
				153.2,210.4 153.2,212.4 155.2,212.4 			"/>
			<polygon fill="#2C313A" points="165.2,205.8 165.2,208.5 165.2,210.4 165.2,212.4 167.1,212.4 172.4,212.4 174.3,212.4 
				174.3,210.4 174.3,208.5 174.3,205.8 			"/>
			<polygon fill="#2C313A" points="156.4,223 156.4,221 156.4,217.2 156.4,215.2 154.4,215.2 145,215.2 143,215.2 143,217.2 
				143,221 143,223 145,223 154.4,223 			"/>
			<polygon fill="#2C313A" points="139.1,223 139.1,215.2 137.1,215.2 127.7,215.2 125.7,215.2 125.7,217.2 125.7,221 125.7,223 
				127.7,223 137.1,223 			"/>
			<polygon fill="#2C313A" points="119.5,223 121.5,223 121.5,221 121.5,217.2 121.5,215.2 119.5,215.2 110.1,215.2 108.1,215.2 
				108.1,217.2 108.1,221 108.1,223 110.1,223 			"/>
			<polygon fill="#2C313A" points="101.2,223 103.2,223 103.2,221.1 103.2,221 103.2,217.2 103.2,217.2 103.2,215.2 101.2,215.2 
				91.8,215.2 89.8,215.2 89.8,217.2 89.8,221 89.8,223 91.8,223 			"/>
			<polygon fill="#2C313A" points="83.5,223 85.5,223 85.5,215.2 83.5,215.2 74.1,215.2 72.1,215.2 72.1,217.2 72.1,221 72.1,223 
				74.1,223 			"/>
			<polygon fill="#2C313A" points="65.5,223 67.5,223 67.5,221 67.5,217.2 67.5,215.2 65.5,215.2 56.1,215.2 54.1,215.2 54.1,223 
				56.1,223 			"/>
			<polygon fill="#2C313A" points="38.4,223 47.9,223 49.8,223 49.8,221 49.8,217.2 49.8,215.2 47.9,215.2 38.4,215.2 36.5,215.2 
				36.5,217.2 36.5,217.2 36.5,221 36.5,221.1 36.5,223 			"/>
			<polygon fill="#2C313A" points="37.7,243.4 37.7,235.6 35.8,235.6 26.3,235.6 24.4,235.6 24.4,243.4 26.3,243.4 35.8,243.4 			
				"/>
			<path fill="#2C313A" d="M44,243.4h9.4h2.1v-7.8h-2.1H44h-1.9v1.4c-0.1,0.2-0.1,0.4-0.1,0.6v3.8c0,0.2,0.1,0.4,0.1,0.6v1.4H44z"/>
			<polygon fill="#2C313A" points="51.5,233.1 53.5,233.1 53.5,225.3 51.5,225.3 51.5,225.3 42.1,225.3 42.1,225.3 40.1,225.3 
				40.1,233.1 42.1,233.1 			"/>
			<polygon fill="#2C313A" points="69.5,233.1 71.5,233.1 71.5,225.3 69.6,225.3 69.5,225.3 60.1,225.3 60.1,225.3 58.1,225.3 
				58.1,233.1 60.1,233.1 			"/>
			<polygon fill="#2C313A" points="71.5,243.4 73.4,243.4 73.4,241.4 73.4,237.6 73.4,235.6 71.5,235.6 62,235.6 60.1,235.6 
				60.1,237.6 60.1,241.4 60.1,243.4 62,243.4 			"/>
			<polygon fill="#2C313A" points="87.2,233.1 89.2,233.1 89.2,231.1 89.2,227.3 89.2,225.3 87.2,225.3 87.2,225.3 77.8,225.3 
				77.8,225.3 75.8,225.3 75.8,227.3 75.8,231.1 75.8,233.1 77.8,233.1 			"/>
			<polygon fill="#2C313A" points="89.1,243.4 91.1,243.4 91.1,241.4 91.1,241.4 91.1,237.6 91.1,237.6 91.1,235.6 89.1,235.6 
				79.7,235.6 77.7,235.6 77.7,237.6 77.7,241.4 77.7,243.4 79.7,243.4 			"/>
			<polygon fill="#2C313A" points="105.5,233.1 107.5,233.1 107.5,225.3 105.5,225.3 105.5,225.3 96.1,225.3 96.1,225.3 94.1,225.3 
				94.1,233.1 96.1,233.1 			"/>
			<polygon fill="#2C313A" points="107.4,243.4 109.4,243.4 109.4,241.4 109.4,237.6 109.4,235.6 107.4,235.6 98,235.6 96,235.6 
				96,237.6 96,241.4 96,243.4 98,243.4 			"/>
			<polygon fill="#2C313A" points="123.1,233.1 125.1,233.1 125.1,225.3 123.1,225.3 123.1,225.3 113.7,225.3 113.7,225.3 
				111.7,225.3 111.7,227.3 111.7,231.1 111.7,233.1 113.7,233.1 			"/>
			<polygon fill="#2C313A" points="127,235.6 125,235.6 115.6,235.6 113.6,235.6 113.6,237.6 113.6,241.4 113.6,243.4 115.6,243.4 
				125,243.4 127,243.4 127,241.4 127,241.4 127,237.6 127,237.6 			"/>
			<polygon fill="#2C313A" points="140.4,233.1 142.4,233.1 142.4,225.3 140.4,225.3 140.4,225.3 131,225.3 131,225.3 129,225.3 
				129,227.3 129,231.1 129,233.1 131,233.1 			"/>
			<polygon fill="#2C313A" points="132.9,235.6 130.9,235.6 130.9,243.4 132.9,243.4 142.3,243.4 144.3,243.4 144.3,235.6 
				142.3,235.6 			"/>
			<polygon fill="#2C313A" points="133.3,245.8 131.3,245.8 131.3,247.8 131.3,251.5 131.3,253.5 133.3,253.5 140.4,253.5 
				142.4,253.5 142.4,251.5 142.4,247.8 142.4,245.8 140.4,245.8 			"/>
			<polygon fill="#2C313A" points="148.7,245.8 146.7,245.8 146.7,247.8 146.7,251.5 146.7,253.5 148.7,253.5 155.8,253.5 
				157.8,253.5 157.8,251.5 157.8,247.8 157.8,245.8 155.8,245.8 			"/>
			<polygon fill="#2C313A" points="165.3,245.8 163.3,245.8 163.3,247.8 163.3,251.5 163.3,253.5 165.3,253.5 172.4,253.5 
				174.3,253.5 174.3,251.5 174.3,247.8 174.3,245.8 172.4,245.8 			"/>
			<path fill="#2C313A" d="M162.7,218.3h-2v1.8c0,0.1,0,0.1,0,0.2v7.2h-11.6v2.1v6.4v0.6v3.2v2h2h9.7h4.4h7.2h2v-2v-3.9v-1v-14.7v-2
				h-2H162.7z"/>
			<polygon fill="#2C313A" points="31,223.4 32.9,223.4 32.9,221.4 32.9,217.2 32.9,215.2 31,215.2 9.5,215.2 7.5,215.2 7.5,217.2 
				7.5,221.4 7.5,223.4 9.5,223.4 			"/>
			<polygon fill="#2C313A" points="16,233.1 18,233.1 18,231.1 18,231.1 18,228.1 18,228.1 18,226.1 16,226.1 9.5,226.1 7.5,226.1 
				7.5,228.1 7.5,231.1 7.5,233.1 9.5,233.1 			"/>
			<polygon fill="#2C313A" points="19.3,243.4 21.3,243.4 21.3,241.4 21.3,238.4 21.3,236.4 19.3,236.4 9.5,236.4 7.5,236.4 
				7.5,238.4 7.5,241.4 7.5,243.4 9.5,243.4 			"/>
			<polygon fill="#2C313A" points="24.4,245.8 22.4,245.8 9.5,245.8 7.5,245.8 7.5,247.8 7.5,251.5 7.5,253.5 9.5,253.5 22.4,253.5 
				24.4,253.5 24.4,251.5 24.4,251.5 24.4,247.8 24.4,247.8 			"/>
			<polygon fill="#2C313A" points="30,245.8 28,245.8 28,247.8 28,251.5 28,253.5 30,253.5 42.9,253.5 44.9,253.5 44.9,251.5 
				44.9,247.8 44.9,245.8 42.9,245.8 			"/>
			<polygon fill="#2C313A" points="50.8,245.8 48.8,245.8 48.8,247.8 48.8,251.5 48.8,253.5 50.8,253.5 124.9,253.5 126.9,253.5 
				126.9,251.5 126.9,247.8 126.9,245.8 124.9,245.8 			"/>
		</g>
	</g>
	<g>
		<path fill="#2C313A" d="M82.6,194.3h-3V179c0-0.1-0.3-3.9,2.3-6.6c1.6-1.8,4-2.7,7-2.7h26.7v3H88.9c-2.1,0-3.8,0.6-4.8,1.7
			c-1.7,1.8-1.5,4.5-1.5,4.5L82.6,194.3z"/>
	</g>
</g>
<g>
	<path fill="#333741" d="M78.6,73.7c0,6.5,5.3,11.7,11.7,11.7h39.7c6.5,0,11.8-5.3,11.8-11.7v-7.1c0-6.5-5.3-11.8-11.8-11.8H90.4
		c-6.5,0-11.7,5.3-11.7,11.8V73.7z"/>
	<path fill="#333741" d="M120.8,73.7c0,6.5,5.3,11.7,11.7,11.7h39.7c6.5,0,11.8-5.3,11.8-11.7v-7.1c0-6.5-5.3-11.8-11.8-11.8h-39.7
		c-6.5,0-11.7,5.3-11.7,11.8V73.7z"/>
	<g>
		<path fill="#00B3AA" d="M95.2,71.1c0,1.2-0.4,2.1-1.1,2.8c-0.7,0.7-1.7,1-3,1c-0.6,0-1.2-0.1-1.6-0.2c-0.5-0.2-0.9-0.4-1.4-0.7
			l0.9-1.5c0.3,0.2,0.7,0.4,1,0.5c0.3,0.1,0.6,0.1,1,0.1c0.5,0,1-0.2,1.3-0.5c0.3-0.3,0.5-0.9,0.5-1.5v-4.7h-3.1v-1.7h5.4V71.1z"/>
		<path fill="#00B3AA" d="M99.1,72.6l-0.5,2.2h-2.5l3.1-10h2.9l3.1,10h-2.5l-0.5-2.2H99.1z M101.7,70.9l-1.1-4.4l-1.1,4.4H101.7z"/>
		<path fill="#00B3AA" d="M111.2,64.7h2.4l-2.9,10h-2.9l-2.9-10h2.5l1.9,8.2L111.2,64.7z"/>
		<path fill="#00B3AA" d="M116.5,72.6l-0.5,2.2h-2.5l3.1-10h2.9l3.1,10h-2.5l-0.5-2.2H116.5z M119,70.9l-1.1-4.4l-1.1,4.4H119z"/>
		<path fill="#00B3AA" d="M130,73.5c-0.3,0.5-0.8,0.9-1.4,1.1s-1.3,0.4-2.2,0.4c-1.7,0-3-0.5-4-1.4l1.2-1.3c0.8,0.7,1.7,1,2.7,1
			c0.5,0,0.9-0.1,1.2-0.3c0.3-0.2,0.5-0.5,0.5-0.9c0-0.4-0.1-0.7-0.4-0.9c-0.3-0.2-0.7-0.4-1.4-0.6c-1.2-0.4-2-0.8-2.5-1.3
			c-0.5-0.5-0.7-1.1-0.7-1.9c0-0.6,0.2-1.1,0.5-1.6c0.3-0.4,0.8-0.8,1.4-1c0.6-0.2,1.2-0.3,1.9-0.3c1.5,0,2.7,0.4,3.6,1.3l-1.1,1.3
			c-0.3-0.3-0.7-0.5-1.1-0.6c-0.4-0.1-0.8-0.2-1.2-0.2c-0.5,0-0.8,0.1-1.1,0.3c-0.3,0.2-0.4,0.4-0.4,0.7c0,0.2,0.1,0.4,0.2,0.5
			s0.3,0.3,0.6,0.4c0.3,0.1,0.7,0.3,1.3,0.4c1,0.3,1.8,0.7,2.3,1.2s0.7,1.2,0.7,2C130.5,72.4,130.4,73,130,73.5z"/>
		<path fill="#00B3AA" d="M138,64.7c0.5,0.2,1,0.5,1.4,0.8l-1.2,1.4c-0.6-0.5-1.3-0.7-2-0.7c-0.7,0-1.2,0.3-1.7,0.9
			s-0.6,1.5-0.6,2.6c0,1.2,0.2,2,0.6,2.6c0.4,0.6,1,0.8,1.7,0.8c0.4,0,0.8-0.1,1.1-0.2c0.3-0.2,0.7-0.4,1-0.7l1.1,1.4
			c-0.9,0.9-2,1.4-3.4,1.4c-0.9,0-1.7-0.2-2.4-0.6c-0.7-0.4-1.2-1-1.6-1.8c-0.4-0.8-0.6-1.8-0.6-2.9c0-1.1,0.2-2,0.6-2.8
			c0.4-0.8,1-1.4,1.7-1.8c0.7-0.4,1.5-0.6,2.4-0.6C136.9,64.5,137.5,64.5,138,64.7z"/>
		<path fill="#00B3AA" d="M147.3,69.5c-0.4,0.5-0.8,0.8-1.5,1l2.6,4.2h-2.7l-2.2-3.8h-0.7v3.8h-2.4v-10h3.2c1.4,0,2.4,0.3,3.1,0.8
			s1,1.3,1,2.3C147.8,68.4,147.6,69,147.3,69.5z M144.9,66.7c-0.3-0.2-0.7-0.3-1.3-0.3h-0.8v2.9h0.9c0.5,0,0.9-0.1,1.2-0.4
			c0.3-0.2,0.4-0.6,0.4-1.1C145.4,67.3,145.2,66.9,144.9,66.7z"/>
		<path fill="#00B3AA" d="M156,66.5h-2.1V73h2.1v1.8h-6.5V73h2.1v-6.5h-2.1v-1.7h6.5V66.5z"/>
		<path fill="#00B3AA" d="M164.3,70.5c-0.7,0.6-1.7,0.9-2.9,0.9h-1.1v3.3h-2.4v-10h3.2c1.4,0,2.4,0.3,3.2,0.8s1.1,1.4,1.1,2.5
			C165.4,69.1,165,70,164.3,70.5z M161.1,66.4h-0.8v3.3h0.9c0.5,0,1-0.1,1.3-0.4c0.3-0.3,0.4-0.7,0.4-1.3
			C162.9,66.9,162.3,66.4,161.1,66.4z"/>
		<path fill="#00B3AA" d="M171.2,74.7h-2.4v-8.2H166v-1.8h8.1l-0.2,1.8h-2.7V74.7z"/>
	</g>
</g>
</svg>
